<?xml version="1.0" encoding="UTF-8" standalone="no"?>
<svg xmlns="http://www.w3.org/2000/svg" xmlns:xlink="http://www.w3.org/1999/xlink" class="card" face="2S" height="3.5in" preserveAspectRatio="none" viewBox="-120 -168 240 336" width="2.5in"><symbol id="SS2" viewBox="-600 -600 1200 1200" preserveAspectRatio="xMinYMid"><path d="M0 -500C100 -250 355 -100 355 185A150 150 0 0 1 55 185A10 10 0 0 0 35 185C35 385 85 400 130 500L-130 500C-85 400 -35 385 -35 185A10 10 0 0 0 -55 185A150 150 0 0 1 -355 185C-355 -100 -100 -250 0 -500Z" fill="black"></path></symbol><symbol id="VS2" viewBox="-500 -500 1000 1000" preserveAspectRatio="xMinYMid"><path d="M-225 -225C-245 -265 -200 -460 0 -460C 200 -460 225 -325 225 -225C225 -25 -225 160 -225 460L225 460L225 300" stroke="black" stroke-width="80" stroke-linecap="square" stroke-miterlimit="1.5" fill="none"></path></symbol><defs><rect id="XS2" width="104" height="200" x="-52" y="-100"></rect></defs><rect width="239" height="335" x="-119.5" y="-167.5" rx="12" ry="12" fill="white" stroke="black"></rect><use xlink:href="#XS2" stroke="#88f" fill="#FFC"></use><use xlink:href="#VS2" height="70" x="-122" y="-156"></use><use xlink:href="#SS2" height="58.558" x="-116.279" y="-81"></use><use xlink:href="#SS2" height="40" x="-20" y="-98.334"></use><g transform="rotate(180)"><use xlink:href="#VS2" height="70" x="-122" y="-156"></use><use xlink:href="#SS2" height="58.558" x="-116.279" y="-81"></use><use xlink:href="#SS2" height="40" x="-20" y="-98.334"></use></g></svg>