<?xml version="1.0" encoding="UTF-8" standalone="no"?>
<svg xmlns="http://www.w3.org/2000/svg" xmlns:xlink="http://www.w3.org/1999/xlink" class="card" face="8H" height="3.5in" preserveAspectRatio="none" viewBox="-120 -168 240 336" width="2.5in"><symbol id="SH8" viewBox="-600 -600 1200 1200" preserveAspectRatio="xMinYMid"><path d="M0 -300C0 -400 100 -500 200 -500C300 -500 400 -400 400 -250C400 0 0 400 0 500C0 400 -400 0 -400 -250C-400 -400 -300 -500 -200 -500C-100 -500 0 -400 -0 -300Z" fill="#d20000"></path></symbol><symbol id="VH8" viewBox="-500 -500 1000 1000" preserveAspectRatio="xMinYMid"><path d="M-1 -50A205 205 0 1 1 1 -50L-1 -50A255 255 0 1 0 1 -50Z" stroke="#d20000" stroke-width="80" stroke-linecap="square" stroke-miterlimit="1.5" fill="none"></path></symbol><defs><rect id="XH8" width="104" height="200" x="-52" y="-100"></rect></defs><rect width="239" height="335" x="-119.5" y="-167.5" rx="12" ry="12" fill="white" stroke="black"></rect><use xlink:href="#XH8" stroke="#88f" fill="#FFC"></use><use xlink:href="#VH8" height="70" x="-122" y="-156"></use><use xlink:href="#SH8" height="58.558" x="-116.279" y="-81"></use><use xlink:href="#SH8" height="40" x="-53.667" y="-98.334"></use><use xlink:href="#SH8" height="40" x="13.667" y="-98.334"></use><use xlink:href="#SH8" height="40" x="-20" y="-59.167"></use><use xlink:href="#SH8" height="40" x="-53.667" y="-20"></use><use xlink:href="#SH8" height="40" x="13.667" y="-20"></use><g transform="rotate(180)"><use xlink:href="#VH8" height="70" x="-122" y="-156"></use><use xlink:href="#SH8" height="58.558" x="-116.279" y="-81"></use><use xlink:href="#SH8" height="40" x="-53.667" y="-98.334"></use><use xlink:href="#SH8" height="40" x="13.667" y="-98.334"></use><use xlink:href="#SH8" height="40" x="-20" y="-59.167"></use></g></svg>