<?xml version="1.0" encoding="UTF-8" standalone="no"?>
<svg xmlns="http://www.w3.org/2000/svg" xmlns:xlink="http://www.w3.org/1999/xlink" class="card" face="9D" height="3.5in" preserveAspectRatio="none" viewBox="-120 -168 240 336" width="2.5in"><symbol id="SD9" viewBox="-600 -600 1200 1200" preserveAspectRatio="xMinYMid"><path d="M-400 0C-350 0 0 -450 0 -500C0 -450 350 0 400 0C350 0 0 450 0 500C0 450 -350 0 -400 0Z" fill="#d20000"></path></symbol><symbol id="VD9" viewBox="-500 -500 1000 1000" preserveAspectRatio="xMinYMid"><path d="M250 -100A250 250 0 0 1 -250 -100L-250 -210A250 250 0 0 1 250 -210L250 210A250 250 0 0 1 0 460C-150 460 -180 400 -200 375" stroke="#d20000" stroke-width="80" stroke-linecap="square" stroke-miterlimit="1.5" fill="none"></path></symbol><defs><rect id="XD9" width="104" height="200" x="-52" y="-100"></rect></defs><rect width="239" height="335" x="-119.5" y="-167.5" rx="12" ry="12" fill="white" stroke="black"></rect><use xlink:href="#XD9" stroke="#88f" fill="#FFC"></use><use xlink:href="#VD9" height="70" x="-122" y="-156"></use><use xlink:href="#SD9" height="58.558" x="-116.279" y="-81"></use><use xlink:href="#SD9" height="40" x="-53.667" y="-98.334"></use><use xlink:href="#SD9" height="40" x="13.667" y="-98.334"></use><use xlink:href="#SD9" height="40" x="-53.667" y="-46.111"></use><use xlink:href="#SD9" height="40" x="13.667" y="-46.111"></use><use xlink:href="#SD9" height="40" x="-20" y="-20"></use><g transform="rotate(180)"><use xlink:href="#VD9" height="70" x="-122" y="-156"></use><use xlink:href="#SD9" height="58.558" x="-116.279" y="-81"></use><use xlink:href="#SD9" height="40" x="-53.667" y="-98.334"></use><use xlink:href="#SD9" height="40" x="13.667" y="-98.334"></use><use xlink:href="#SD9" height="40" x="-53.667" y="-46.111"></use><use xlink:href="#SD9" height="40" x="13.667" y="-46.111"></use></g></svg>