<?xml version="1.0" encoding="UTF-8" standalone="no"?>
<svg xmlns="http://www.w3.org/2000/svg" xmlns:xlink="http://www.w3.org/1999/xlink" class="card" face="TC" height="3.5in" preserveAspectRatio="none" viewBox="-120 -168 240 336" width="2.5in"><symbol id="SCT" viewBox="-600 -600 1200 1200" preserveAspectRatio="xMinYMid"><path d="M30 150C35 385 85 400 130 500L-130 500C-85 400 -35 385 -30 150A10 10 0 0 0 -50 150A210 210 0 1 1 -124 -51A10 10 0 0 0 -110 -65A230 230 0 1 1 110 -65A10 10 0 0 0 124 -51A210 210 0 1 1 50 150A10 10 0 0 0 30 150Z" fill="black"></path></symbol><symbol id="VCT" viewBox="-500 -500 1000 1000" preserveAspectRatio="xMinYMid"><path d="M-260 430L-260 -430M-50 0L-50 -310A150 150 0 0 1 250 -310L250 310A150 150 0 0 1 -50 310Z" stroke="black" stroke-width="80" stroke-linecap="square" stroke-miterlimit="1.5" fill="none"></path></symbol><defs><rect id="XCT" width="104" height="200" x="-52" y="-100"></rect></defs><rect width="239" height="335" x="-119.5" y="-167.5" rx="12" ry="12" fill="white" stroke="black"></rect><use xlink:href="#XCT" stroke="#88f" fill="#FFC"></use><use xlink:href="#VCT" height="70" x="-122" y="-156"></use><use xlink:href="#SCT" height="58.558" x="-116.279" y="-81"></use><use xlink:href="#SCT" height="40" x="-51.45" y="-98.384"></use><use xlink:href="#SCT" height="40" x="11.45" y="-98.384"></use><use xlink:href="#SCT" height="40" x="-51.45" y="-46.128"></use><use xlink:href="#SCT" height="40" x="11.45" y="-46.128"></use><use xlink:href="#SCT" height="40" x="-20" y="-72.256"></use><g transform="rotate(180)"><use xlink:href="#VCT" height="70" x="-122" y="-156"></use><use xlink:href="#SCT" height="58.558" x="-116.279" y="-81"></use><use xlink:href="#SCT" height="40" x="-51.45" y="-98.384"></use><use xlink:href="#SCT" height="40" x="11.45" y="-98.384"></use><use xlink:href="#SCT" height="40" x="-51.45" y="-46.128"></use><use xlink:href="#SCT" height="40" x="11.45" y="-46.128"></use><use xlink:href="#SCT" height="40" x="-20" y="-72.256"></use></g></svg>