<?xml version="1.0" encoding="UTF-8" standalone="no"?>
<svg xmlns="http://www.w3.org/2000/svg" xmlns:xlink="http://www.w3.org/1999/xlink" class="card" face="TH" height="3.5in" preserveAspectRatio="none" viewBox="-120 -168 240 336" width="2.5in"><symbol id="SHT" viewBox="-600 -600 1200 1200" preserveAspectRatio="xMinYMid"><path d="M0 -300C0 -400 100 -500 200 -500C300 -500 400 -400 400 -250C400 0 0 400 0 500C0 400 -400 0 -400 -250C-400 -400 -300 -500 -200 -500C-100 -500 0 -400 -0 -300Z" fill="#d20000"></path></symbol><symbol id="VHT" viewBox="-500 -500 1000 1000" preserveAspectRatio="xMinYMid"><path d="M-260 430L-260 -430M-50 0L-50 -310A150 150 0 0 1 250 -310L250 310A150 150 0 0 1 -50 310Z" stroke="#d20000" stroke-width="80" stroke-linecap="square" stroke-miterlimit="1.5" fill="none"></path></symbol><defs><rect id="XHT" width="104" height="200" x="-52" y="-100"></rect></defs><rect width="239" height="335" x="-119.5" y="-167.5" rx="12" ry="12" fill="white" stroke="black"></rect><use xlink:href="#XHT" stroke="#88f" fill="#FFC"></use><use xlink:href="#VHT" height="70" x="-122" y="-156"></use><use xlink:href="#SHT" height="58.558" x="-116.279" y="-81"></use><use xlink:href="#SHT" height="40" x="-53.667" y="-98.334"></use><use xlink:href="#SHT" height="40" x="13.667" y="-98.334"></use><use xlink:href="#SHT" height="40" x="-53.667" y="-46.111"></use><use xlink:href="#SHT" height="40" x="13.667" y="-46.111"></use><use xlink:href="#SHT" height="40" x="-20" y="-72.222"></use><g transform="rotate(180)"><use xlink:href="#VHT" height="70" x="-122" y="-156"></use><use xlink:href="#SHT" height="58.558" x="-116.279" y="-81"></use><use xlink:href="#SHT" height="40" x="-53.667" y="-98.334"></use><use xlink:href="#SHT" height="40" x="13.667" y="-98.334"></use><use xlink:href="#SHT" height="40" x="-53.667" y="-46.111"></use><use xlink:href="#SHT" height="40" x="13.667" y="-46.111"></use><use xlink:href="#SHT" height="40" x="-20" y="-72.222"></use></g></svg>